/* XPM */
static char *collectable_sprite[] = {
/* columns rows colors chars-per-pixel */
"200 50 6 1 ",
"  c #25131A",
". c #E84444",
"X c #D1851E",
"o c #FFD569",
"O c white",
"+ c None",
/* pixels */
"++++++++++++++++++++++++++++++++++++++++++++++++++++++++++++++++++++++++++++++++++++++++++++++++++++++++++++++++++++++++++++++++++++++++++++++++++++++++++++++++++++++++++++++++++++++++++++++++++++++++",
"++++++++++++++++++++++++++++++++++++++++++++++++++++++++++++++++++++++++++++++++++++++++++++++++++++++++++++++++++++++++++++++++++++++++++++++++++++++++++++++++++++++++++++++++++++++++++++++++++++++++",
"++++++++++++++++++++++++++++++++++++++++++++++++++++++++++++++++++++++++++++++++++++++++++++++++++++++++++++++++++++++++++++++++++++++++++++++++++++++++++++++++++++++++++++++++++++++++++++++++++++++++",
"++++++++++++++++++++++++++++++++++++++++++++++++++++++++++++++++++++++++++++++++++++++++++++++++++++++++++++++++++++++++++++++++++++++++++++++++++++++++++++++++++++++++++++++++++++++++++++++++++++++++",
"++++++++++++++++++++++++++++++++++++++++++++++++++++++++++++++++++++++++++++++++++++++++++++++++++++++++++++++++++++++++++++++++++++++++++++++++++++++++++++++++++++++++++++++++++++++++++++++++++++++++",
"+++++++++++++++++++++++++++++++++++++++++++++++++++++++++++++++++               +++++++++++++++++++++++++++++++++++               ++++++++++++++++++++++++++++++++++++++++++++++++++++++++++++++++++++++",
"+++++++++++++++++++++++++++++++++++++++++++++++++++++++++++++++++               +++++++++++++++++++++++++++++++++++               ++++++++++++++++++++++++++++++++++++++++++++++++++++++++++++++++++++++",
"+++++++++++++++++++++++++++++++++++++++++++++++++++++++++++++++++               +++++++++++++++++++++++++++++++++++               ++++++++++++++++++++++++++++++++++++++++++++++++++++++++++++++++++++++",
"+++++++++++++++++++++++++++++++++++++++++++++++++++++++++++++++++               +++++++++++++++++++++++++++++++++++               ++++++++++++++++++++++++++++++++++++++++++++++++++++++++++++++++++++++",
"+++++++++++++++++++++++++++++++++++++++++++++++++++++++++++++++++               +++++++++++++++++++++++++++++++++++               ++++++++++++++++++++++++++++++++++++++++++++++++++++++++++++++++++++++",
"+++++++++++++++               ++++++++++++++++++++++++++++++     OOOOOOOOOO.....     +++++++++++++++++++++++++     oooooooooo.....     +++++++++++++++++++++++++                         +++++++++++++++",
"+++++++++++++++               ++++++++++++++++++++++++++++++     OOOOOOOOOO.....     +++++++++++++++++++++++++     oooooooooo.....     +++++++++++++++++++++++++                         +++++++++++++++",
"+++++++++++++++               ++++++++++++++++++++++++++++++     OOOOOOOOOO.....     +++++++++++++++++++++++++     oooooooooo.....     +++++++++++++++++++++++++                         +++++++++++++++",
"+++++++++++++++               ++++++++++++++++++++++++++++++     OOOOOOOOOO.....     +++++++++++++++++++++++++     oooooooooo.....     +++++++++++++++++++++++++                         +++++++++++++++",
"+++++++++++++++               ++++++++++++++++++++++++++++++     OOOOOOOOOO.....     +++++++++++++++++++++++++     oooooooooo.....     +++++++++++++++++++++++++                         +++++++++++++++",
"++++++++++     oooooooooo.....     +++++++++++++++++++++++++     OOOOOooooo.....     ++++++++++++++++++++     ooooooooooOOOOOOOOOO.....     +++++++++++++++     oooooooooooooooooooo.....     ++++++++++",
"++++++++++     oooooooooo.....     +++++++++++++++++++++++++     OOOOOooooo.....     ++++++++++++++++++++     ooooooooooOOOOOOOOOO.....     +++++++++++++++     oooooooooooooooooooo.....     ++++++++++",
"++++++++++     oooooooooo.....     +++++++++++++++++++++++++     OOOOOooooo.....     ++++++++++++++++++++     ooooooooooOOOOOOOOOO.....     +++++++++++++++     oooooooooooooooooooo.....     ++++++++++",
"++++++++++     oooooooooo.....     +++++++++++++++++++++++++     OOOOOooooo.....     ++++++++++++++++++++     ooooooooooOOOOOOOOOO.....     +++++++++++++++     oooooooooooooooooooo.....     ++++++++++",
"++++++++++     oooooooooo.....     +++++++++++++++++++++++++     OOOOOooooo.....     ++++++++++++++++++++     ooooooooooOOOOOOOOOO.....     +++++++++++++++     oooooooooooooooooooo.....     ++++++++++",
"+++++     oooooooooooooooooooo.....     +++++++++++++++     OOOOOXXXXXXXXXXooooo.....     +++++++++++++++     oooooOOOOOOOOOOOOOOO.....     ++++++++++     ooooooooooXXXXXXXXXXoooooooooo.....     +++++",
"+++++     oooooooooooooooooooo.....     +++++++++++++++     OOOOOXXXXXXXXXXooooo.....     +++++++++++++++     oooooOOOOOOOOOOOOOOO.....     ++++++++++     ooooooooooXXXXXXXXXXoooooooooo.....     +++++",
"+++++     oooooooooooooooooooo.....     +++++++++++++++     OOOOOXXXXXXXXXXooooo.....     +++++++++++++++     oooooOOOOOOOOOOOOOOO.....     ++++++++++     ooooooooooXXXXXXXXXXoooooooooo.....     +++++",
"+++++     oooooooooooooooooooo.....     +++++++++++++++     OOOOOXXXXXXXXXXooooo.....     +++++++++++++++     oooooOOOOOOOOOOOOOOO.....     ++++++++++     ooooooooooXXXXXXXXXXoooooooooo.....     +++++",
"+++++     oooooooooooooooooooo.....     +++++++++++++++     OOOOOXXXXXXXXXXooooo.....     +++++++++++++++     oooooOOOOOOOOOOOOOOO.....     ++++++++++     ooooooooooXXXXXXXXXXoooooooooo.....     +++++",
"+++++     oooooXXXXXXXXXXooooo.....     +++++++++++++++     oooooXXXXXXXXXXooooo.....     +++++++++++++++     OOOOOOOOOOOOOOOooooo.....     ++++++++++     ooooooooooXXXXXXXXXXoooooooooo.....     +++++",
"+++++     oooooXXXXXXXXXXooooo.....     +++++++++++++++     oooooXXXXXXXXXXooooo.....     +++++++++++++++     OOOOOOOOOOOOOOOooooo.....     ++++++++++     ooooooooooXXXXXXXXXXoooooooooo.....     +++++",
"+++++     oooooXXXXXXXXXXooooo.....     +++++++++++++++     oooooXXXXXXXXXXooooo.....     +++++++++++++++     OOOOOOOOOOOOOOOooooo.....     ++++++++++     ooooooooooXXXXXXXXXXoooooooooo.....     +++++",
"+++++     oooooXXXXXXXXXXooooo.....     +++++++++++++++     oooooXXXXXXXXXXooooo.....     +++++++++++++++     OOOOOOOOOOOOOOOooooo.....     ++++++++++     ooooooooooXXXXXXXXXXoooooooooo.....     +++++",
"+++++     oooooXXXXXXXXXXooooo.....     +++++++++++++++     oooooXXXXXXXXXXooooo.....     +++++++++++++++     OOOOOOOOOOOOOOOooooo.....     ++++++++++     ooooooooooXXXXXXXXXXoooooooooo.....     +++++",
"+++++     oooooXXXXXXXXXXooooo.....     +++++++++++++++     oooooXXXXXXXXXXooooo.....     +++++++++++++++     OOOOOOOOOOoooooooooo.....     ++++++++++     ooooooooooXXXXXXXXXXOOOOOOOOOO.....     +++++",
"+++++     oooooXXXXXXXXXXooooo.....     +++++++++++++++     oooooXXXXXXXXXXooooo.....     +++++++++++++++     OOOOOOOOOOoooooooooo.....     ++++++++++     ooooooooooXXXXXXXXXXOOOOOOOOOO.....     +++++",
"+++++     oooooXXXXXXXXXXooooo.....     +++++++++++++++     oooooXXXXXXXXXXooooo.....     +++++++++++++++     OOOOOOOOOOoooooooooo.....     ++++++++++     ooooooooooXXXXXXXXXXOOOOOOOOOO.....     +++++",
"+++++     oooooXXXXXXXXXXooooo.....     +++++++++++++++     oooooXXXXXXXXXXooooo.....     +++++++++++++++     OOOOOOOOOOoooooooooo.....     ++++++++++     ooooooooooXXXXXXXXXXOOOOOOOOOO.....     +++++",
"+++++     oooooXXXXXXXXXXooooo.....     +++++++++++++++     oooooXXXXXXXXXXooooo.....     +++++++++++++++     OOOOOOOOOOoooooooooo.....     ++++++++++     ooooooooooXXXXXXXXXXOOOOOOOOOO.....     +++++",
"+++++     oooooooooooooooooooo.....     ++++++++++++++++++++     oooooooooo.....     +++++++++++++++++++++++++     oooooooooo.....     ++++++++++++++++++++     oooooOOOOOOOOOOOOOOO.....     ++++++++++",
"+++++     oooooooooooooooooooo.....     ++++++++++++++++++++     oooooooooo.....     +++++++++++++++++++++++++     oooooooooo.....     ++++++++++++++++++++     oooooOOOOOOOOOOOOOOO.....     ++++++++++",
"+++++     oooooooooooooooooooo.....     ++++++++++++++++++++     oooooooooo.....     +++++++++++++++++++++++++     oooooooooo.....     ++++++++++++++++++++     oooooOOOOOOOOOOOOOOO.....     ++++++++++",
"+++++     oooooooooooooooooooo.....     ++++++++++++++++++++     oooooooooo.....     +++++++++++++++++++++++++     oooooooooo.....     ++++++++++++++++++++     oooooOOOOOOOOOOOOOOO.....     ++++++++++",
"+++++     oooooooooooooooooooo.....     ++++++++++++++++++++     oooooooooo.....     +++++++++++++++++++++++++     oooooooooo.....     ++++++++++++++++++++     oooooOOOOOOOOOOOOOOO.....     ++++++++++",
"++++++++++     oooooooooo.....     +++++++++++++++++++++++++     oooooooooo.....     ++++++++++++++++++++++++++++++               ++++++++++++++++++++++++++++++                         +++++++++++++++",
"++++++++++     oooooooooo.....     +++++++++++++++++++++++++     oooooooooo.....     ++++++++++++++++++++++++++++++               ++++++++++++++++++++++++++++++                         +++++++++++++++",
"++++++++++     oooooooooo.....     +++++++++++++++++++++++++     oooooooooo.....     ++++++++++++++++++++++++++++++               ++++++++++++++++++++++++++++++                         +++++++++++++++",
"++++++++++     oooooooooo.....     +++++++++++++++++++++++++     oooooooooo.....     ++++++++++++++++++++++++++++++               ++++++++++++++++++++++++++++++                         +++++++++++++++",
"++++++++++     oooooooooo.....     +++++++++++++++++++++++++     oooooooooo.....     ++++++++++++++++++++++++++++++               ++++++++++++++++++++++++++++++                         +++++++++++++++",
"+++++++++++++++               +++++++++++++++++++++++++++++++++++               ++++++++++++++++++++++++++++++++++++++++++++++++++++++++++++++++++++++++++++++++++++++++++++++++++++++++++++++++++++++++",
"+++++++++++++++               +++++++++++++++++++++++++++++++++++               ++++++++++++++++++++++++++++++++++++++++++++++++++++++++++++++++++++++++++++++++++++++++++++++++++++++++++++++++++++++++",
"+++++++++++++++               +++++++++++++++++++++++++++++++++++               ++++++++++++++++++++++++++++++++++++++++++++++++++++++++++++++++++++++++++++++++++++++++++++++++++++++++++++++++++++++++",
"+++++++++++++++               +++++++++++++++++++++++++++++++++++               ++++++++++++++++++++++++++++++++++++++++++++++++++++++++++++++++++++++++++++++++++++++++++++++++++++++++++++++++++++++++",
"+++++++++++++++               +++++++++++++++++++++++++++++++++++               ++++++++++++++++++++++++++++++++++++++++++++++++++++++++++++++++++++++++++++++++++++++++++++++++++++++++++++++++++++++++"
};
