/* XPM */
static char *heart_sprite[] = {
/* columns rows colors chars-per-pixel */
"96 35 124 2 ",
"   c black",
".  c gray3",
"X  c #0B0B0B",
"o  c gray5",
"O  c #140001",
"+  c #180001",
"@  c #1A0001",
"#  c #1C0001",
"$  c #131313",
"%  c gray8",
"&  c #181818",
"*  c #1D1D1D",
"=  c #200001",
"-  c #250101",
";  c #250203",
":  c #250506",
">  c #2D0102",
",  c #280506",
"<  c #290506",
"1  c #330102",
"2  c #350102",
"3  c #3A0103",
"4  c #3E0103",
"5  c #3F0203",
"6  c #3E0B0D",
"7  c #202020",
"8  c #282828",
"9  c #2D2D2D",
"0  c #323232",
"q  c #353535",
"w  c gray23",
"e  c #3F3F3F",
"r  c #430203",
"t  c #490203",
"y  c #4F0204",
"u  c #4F0305",
"i  c #400C0E",
"p  c #5D0306",
"a  c #430D10",
"s  c #460E11",
"d  c #620306",
"f  c #670406",
"g  c #690407",
"h  c #6B0407",
"j  c #6F0508",
"k  c #771E21",
"l  c #434343",
"z  c gray28",
"x  c gray29",
"c  c #4E4E4E",
"v  c #515151",
"b  c #565656",
"n  c #585858",
"m  c #5D5D5D",
"M  c #626262",
"N  c #676767",
"B  c gray42",
"V  c #84070C",
"C  c #85070C",
"Z  c #92090E",
"A  c #980A10",
"S  c #A20A10",
"D  c #A40A11",
"F  c #A50B11",
"G  c #A70B11",
"H  c #A90B12",
"J  c #AD0B12",
"K  c #A90C13",
"L  c #B00C12",
"P  c #B20C13",
"I  c #B30C13",
"U  c #B70C14",
"Y  c #BA0D14",
"T  c #BB0D15",
"R  c #BC0D15",
"E  c #BE0D14",
"W  c #BE0D15",
"Q  c #A91F24",
"!  c #842227",
"~  c #852327",
"^  c #92272B",
"/  c #98292D",
"(  c #B33237",
")  c #C30E17",
"_  c #C60E17",
"`  c #C31017",
"'  c #CC1018",
"]  c #CD1018",
"[  c #D01119",
"{  c #D31119",
"}  c #D41119",
"|  c #D4111A",
" . c #D7121A",
".. c #DA131B",
"X. c #E0131B",
"o. c #E2131C",
"O. c #E5141C",
"+. c #EB141E",
"@. c #ED151F",
"#. c #EF151F",
"$. c #EF1720",
"%. c #EF1B24",
"&. c #DA2C34",
"*. c #C3373D",
"=. c #EF232B",
"-. c #EF2730",
";. c #EF2B33",
":. c #EF2D35",
">. c #EF3339",
",. c #EE353D",
"<. c #EF383F",
"1. c #D03C41",
"2. c #D73E44",
"3. c #D93E44",
"4. c #DF4046",
"5. c #E14147",
"6. c #E34247",
"7. c #EF4046",
"8. c #EF4147",
"9. c #EF434A",
"0. c #EB444B",
"q. c #EF454C",
"w. c #F48AF6",
"e. c None",
/* pixels */
"e.e.e.e.e.e.e.e.e.e.e.e.e.e.e.e.e.e.e.e.e.e.e.e.e.e.e.e.e.e.e.e.w.w.w.w.w.w.w.w.w.w.w.w.w.w.w.w.w.w.w.w.w.w.w.w.w.w.w.w.w.w.w.w.e.e.e.e.e.e.e.e.e.e.e.e.e.e.e.e.e.e.e.e.e.e.e.e.e.e.e.e.e.e.e.e.",
"e.e.e.e.e.e.e.e.e.e.e.e.e.e.e.e.e.e.e.e.e.e.e.e.e.e.e.e.e.e.e.e.w.w.w.w.w.w.w.w.w.w.w.w.w.w.w.w.w.w.w.w.w.w.w.w.w.w.w.w.w.w.w.w.e.e.e.e.e.e.e.e.e.e.e.e.e.e.e.e.e.e.e.e.e.e.e.e.e.e.e.e.e.e.e.e.",
"e.e.e.e.e.e.e.e.e.e.e.e.e.e.e.e.e.e.e.e.e.e.e.e.e.e.e.e.e.e.e.e.w.w.w.w.w.w.w.w.w.w.w.w.w.w.w.w.w.w.w.w.w.w.w.w.w.w.w.w.w.w.w.w.e.e.e.e.e.e.e.e.e.e.e.e.e.e.e.e.e.e.e.e.e.e.e.e.e.e.e.e.e.e.e.e.",
"e.e.e.e.e.e.          e.e.e.e.e.e.e.e.e.e.          e.e.e.e.e.e.w.w.w.w.w.w.w.w.w.w.w.w.w.w.w.w.w.w.w.w.w.w.w.w.w.w.w.w.w.w.w.w.e.e.e.e.e.e.          e.e.e.e.e.e.e.e.e.e.          e.e.e.e.e.e.",
"e.e.e.e.e.e.          e.e.e.e.e.e.e.e.e.e.          e.e.e.e.e.e.w.w.w.w.w.w.w.w.w.w.w.w.w.w.w.w.w.w.w.w.w.w.w.w.w.w.w.w.w.w.w.w.e.e.e.e.e.e.          e.e.e.e.e.e.e.e.e.e.          e.e.e.e.e.e.",
"e.e.e.e.e.e.a 6 3 i < e.e.e.e.e.e.e.e.e.e.6 5 5 5 r e.e.e.e.e.e.w.w.w.w.w.w.w.w.w.w.w.w.w.w.w.w.w.w.w.w.w.w.w.w.w.w.w.w.w.w.w.w.e.e.e.e.e.e.* * * * * e.e.e.e.e.e.e.e.e.e.% $ $ % % e.e.e.e.e.e.",
"e.e.e.    s *.2.2.2.2.^     e.e.e.e.    Z ..} ..} ` t     e.e.e.w.w.w.w.w.w.w.w.w.w.w.w.w.w.w.w.w.w.w.w.w.w.w.w.w.w.w.w.w.w.w.w.e.e.e.    7 n M M m m l     e.e.e.e.    9 l l l z w %     e.e.e.",
"e.e.e.    i 3.q.q.q.q./       e.e.      A $.$.$.$...5     e.e.e.w.w.w.w.w.w.w.w.w.w.w.w.w.w.w.w.w.w.w.w.w.w.w.w.w.w.w.w.w.w.w.w.e.e.e.    * M B B B B z       e.e.      9 x x x x l %     e.e.e.",
"e.e.e.i s k 5.q.q.q.q.( s a i e.e.4 r t I $.#.O.O.} j 3 2 e.e.e.w.w.w.w.w.w.w.w.w.w.w.w.w.w.w.w.w.w.w.w.w.w.w.w.w.w.w.w.w.w.w.w.e.e.e.* * q N B B B B c * 7 * e.e.% % % q z z z z e 7 $ $ e.e.e.",
"    : 1.5.0.q.q.q.q.q.0.5.5.!     C o.o.#.#.#...[ ] ) ) I =     w.w.w.w.w.w.w.w.w.w.w.w.w.w.w.w.w.w.w.w.w.w.w.w.w.w.w.w.w.w.w.w.    % m N N B B B B B B N N w     8 x l x x z l e e w w q X     ",
"    : 3.q.q.q.q.q.q.q.q.q.q.!     C +.#.$.#.$.} ] ] ] ] Y =     w.w.w.w.w.w.w.w.w.w.w.w.w.w.w.w.w.w.w.w.w.w.w.w.w.w.w.w.w.w.w.w.    $ M B B B B B B B B B B w     8 x x x x z l e w e e w X     ",
"    : 5.q.q.q.q.q.q.q.7.,.,.Q u y K #.#.+.o.o.[ ] ] ] ] Y =     w.w.w.w.w.w.w.w.w.w.w.w.w.w.w.w.w.w.w.w.w.w.w.w.w.w.w.w.w.w.w.w.    % M B B B B B B B N m M l & & q z x z z z e e e e w q X     ",
"    : 1.q.q.q.q.q.q.q.,.$.#.#.#.$.#.#.#...' ' ] ] ] ] ] Y #     w.w.w.w.w.w.w.w.w.w.w.w.w.w.w.w.w.w.w.w.w.w.w.w.w.w.w.w.w.w.w.w.    $ M B B B B B B B m x z z x x x z x l w e w e e e e w X     ",
"    < 5.q.q.q.q.q.q.q.>.#.#.#.#.$.#.#.#...] ] ] ] ] ] ] W =     w.w.w.w.w.w.w.w.w.w.w.w.w.w.w.w.w.w.w.w.w.w.w.w.w.w.w.w.w.w.w.w.    % M B B B B B B B M x x x z x x x x l e e e e w e e w X     ",
"    ; &.>.<.9.q.7.>.>.-.#.#.#.#.#.+.o.o.[ ] ] ' ] ' ) _ P +     w.w.w.w.w.w.w.w.w.w.w.w.w.w.w.w.w.w.w.w.w.w.w.w.w.w.w.w.w.w.w.w.    $ b n M B B N m m b x z x x x l l z e e e e w e w w q X     ",
"    ; ..$.=.7.9.<.$.$.$.#.#.#.#.#...] ] ] ] ] ' ' ] Y U G #     w.w.w.w.w.w.w.w.w.w.w.w.w.w.w.w.w.w.w.w.w.w.w.w.w.w.w.w.w.w.w.w.    o l x v N B M x x x x x x x x l e e e e w e e w w q 0 X     ",
"    ; ..#.=.7.9.<.%.#.#.#.#.#.#.#...] ] ] ] ] ] ] ] Y U S +     w.w.w.w.w.w.w.w.w.w.w.w.w.w.w.w.w.w.w.w.w.w.w.w.w.w.w.w.w.w.w.w.    o l x v B B M z x z z z z z z l e e e e w e e w w q 0 X     ",
"    ; ..#.%.;.:.=.#.#.#.#.#.O...o.} ] ] ] ] ] _ W W U P G +     w.w.w.w.w.w.w.w.w.w.w.w.w.w.w.w.w.w.w.w.w.w.w.w.w.w.w.w.w.w.w.w.    o l x c b n b x x x x z z l l l e e e w e w q w q w 9 X     ",
"    ; ..#.#.#.#.#.#.#.#.#.#.o.' ] ] ] ] ] ] ] Y P P P U S +     w.w.w.w.w.w.w.w.w.w.w.w.w.w.w.w.w.w.w.w.w.w.w.w.w.w.w.w.w.w.w.w.    o l x z x z x x x x x x z e e e w e e e e q q w q q 0 X     ",
"    ; ..#.#.#.#.#.#.#.#.#.#.o.] ] ] ] ] ] ] ] Y U P P P G +     w.w.w.w.w.w.w.w.w.w.w.w.w.w.w.w.w.w.w.w.w.w.w.w.w.w.w.w.w.w.w.w.    X z z x x z x z x z x z l e e w e e e e e w q q q q 0 X     ",
"e.e.e.p f C [ ..o.#.#.+.....[ ] ] ] ] ] ) W Y U P H f t r e.e.e.w.w.w.w.w.w.w.w.w.w.w.w.w.w.w.w.w.w.w.w.w.w.w.w.w.w.w.w.w.w.w.w.e.e.e.* * 8 l z l x x z l l e e w e w e w w e q q 0 7 & $ e.e.e.",
"e.e.e.    2 Y ] } #.#.o.] ] ] ] ] ] ] ] W P U P P S >     e.e.e.w.w.w.w.w.w.w.w.w.w.w.w.w.w.w.w.w.w.w.w.w.w.w.w.w.w.w.w.w.w.w.w.e.e.e.    $ q e l x z z w e e e e e e e w q q q q 0 o     e.e.e.",
"e.e.e.    2 Y ] } #.#.o.] ] ] ] ] ] ] ] E U P P U S >     e.e.e.w.w.w.w.w.w.w.w.w.w.w.w.w.w.w.w.w.w.w.w.w.w.w.w.w.w.w.w.w.w.w.w.e.e.e.    $ w e l z z l e e e w w e e e w q q q w 0 o     e.e.e.",
"e.e.e.e.e.e.r r j } ..} ] ] ] ] ] ) E Y U P P p 2 3 e.e.e.e.e.e.w.w.w.w.w.w.w.w.w.w.w.w.w.w.w.w.w.w.w.w.w.w.w.w.w.w.w.w.w.w.w.w.e.e.e.e.e.e.% % 7 l l l w e e e e w q w q q q * $ $ e.e.e.e.e.e.",
"e.e.e.e.e.e.    3 _ ] ] ] ] ' ' ] E P U U P P 1     e.e.e.e.e.e.w.w.w.w.w.w.w.w.w.w.w.w.w.w.w.w.w.w.w.w.w.w.w.w.w.w.w.w.w.w.w.w.e.e.e.e.e.e.    $ e e e w e e e e w q q q q q o     e.e.e.e.e.e.",
"e.e.e.e.e.e.    3 W ) _ ] ' ' ' ] E P P J H G 1     e.e.e.e.e.e.w.w.w.w.w.w.w.w.w.w.w.w.w.w.w.w.w.w.w.w.w.w.w.w.w.w.w.w.w.w.w.w.e.e.e.e.e.e.    $ w w w w e w e e w q w q q 0 $     e.e.e.e.e.e.",
"e.e.e.e.e.e.e.e.e.5 3 h Y W Y Y Y Y P P d 1 1 e.e.e.e.e.e.e.e.e.w.w.w.w.w.w.w.w.w.w.w.w.w.w.w.w.w.w.w.w.w.w.w.w.w.w.w.w.w.w.w.w.e.e.e.e.e.e.e.e.e.$ % 7 q w w w q q q q * $ $ e.e.e.e.e.e.e.e.e.",
"e.e.e.e.e.e.e.e.e.    5 P P U P P P P P 3     e.e.e.e.e.e.e.e.e.w.w.w.w.w.w.w.w.w.w.w.w.w.w.w.w.w.w.w.w.w.w.w.w.w.w.w.w.w.w.w.w.e.e.e.e.e.e.e.e.e.    % q q q q q q q q $     e.e.e.e.e.e.e.e.e.",
"e.e.e.e.e.e.e.e.e.    5 S S H P P H S A 5     e.e.e.e.e.e.e.e.e.w.w.w.w.w.w.w.w.w.w.w.w.w.w.w.w.w.w.w.w.w.w.w.w.w.w.w.w.w.w.w.w.e.e.e.e.e.e.e.e.e.    % 0 0 0 q q q 0 0 %     e.e.e.e.e.e.e.e.e.",
"e.e.e.e.e.e.e.e.e.e.e.e.> > h P U g 1 > e.e.e.e.e.e.e.e.e.e.e.e.w.w.w.w.w.w.w.w.w.w.w.w.w.w.w.w.w.w.w.w.w.w.w.w.w.w.w.w.w.w.w.w.e.e.e.e.e.e.e.e.e.e.e.e.o o 7 w w * o o e.e.e.e.e.e.e.e.e.e.e.e.",
"e.e.e.e.e.e.e.e.e.e.e.e.    y P U y     e.e.e.e.e.e.e.e.e.e.e.e.w.w.w.w.w.w.w.w.w.w.w.w.w.w.w.w.w.w.w.w.w.w.w.w.w.w.w.w.w.w.w.w.e.e.e.e.e.e.e.e.e.e.e.e.    & q w &     e.e.e.e.e.e.e.e.e.e.e.e.",
"e.e.e.e.e.e.e.e.e.e.e.e.    t G S t     e.e.e.e.e.e.e.e.e.e.e.e.w.w.w.w.w.w.w.w.w.w.w.w.w.w.w.w.w.w.w.w.w.w.w.w.w.w.w.w.w.w.w.w.e.e.e.e.e.e.e.e.e.e.e.e.    % 0 0 %     e.e.e.e.e.e.e.e.e.e.e.e.",
"e.e.e.e.e.e.e.e.e.e.e.e.e.e.O + + O e.e.e.e.e.e.e.e.e.e.e.e.e.e.w.w.w.w.w.w.w.w.w.w.w.w.w.w.w.w.w.w.w.w.w.w.w.w.w.w.w.w.w.w.w.w.e.e.e.e.e.e.e.e.e.e.e.e.e.e.X X X . e.e.e.e.e.e.e.e.e.e.e.e.e.e.",
"e.e.e.e.e.e.e.e.e.e.e.e.e.e.e.    e.e.e.e.e.e.e.e.e.e.e.e.e.e.e.w.w.w.w.w.w.w.w.w.w.w.w.w.w.w.w.w.w.w.w.w.w.w.w.w.w.w.w.w.w.w.w.e.e.e.e.e.e.e.e.e.e.e.e.e.e.e.    e.e.e.e.e.e.e.e.e.e.e.e.e.e.e.",
"e.e.e.e.e.e.e.e.e.e.e.e.e.e.e.    e.e.e.e.e.e.e.e.e.e.e.e.e.e.e.w.w.w.w.w.w.w.w.w.w.w.w.w.w.w.w.w.w.w.w.w.w.w.w.w.w.w.w.w.w.w.w.e.e.e.e.e.e.e.e.e.e.e.e.e.e.e.    e.e.e.e.e.e.e.e.e.e.e.e.e.e.e."
};
